HIERARCHY
ROOT Hips
{
  OFFSET -103.128 26.4911 65.7713
  CHANNELS 6 Xposition Yposition Zposition Zrotation Xrotation Yrotation
  JOINT ToSpine
  {
    OFFSET -2.69724 7.43032 -0.144315
    CHANNELS 3 Zrotation Xrotation Yrotation
    JOINT Spine
    {
      OFFSET -0.0310711 10.7595 1.96963
      CHANNELS 3 Zrotation Xrotation Yrotation
      JOINT Spine1
      {
        OFFSET 19.9056 3.91189 0.764692
        CHANNELS 3 Zrotation Xrotation Yrotation
        JOINT Neck
        {
          OFFSET 25.9749 7.03908 -0.130764
          CHANNELS 3 Zrotation Xrotation Yrotation
          JOINT Head
          {
            OFFSET 9.52751 0.295786 -0.907742
            CHANNELS 3 Zrotation Xrotation Yrotation
            End Site
            {
              OFFSET 16.4037 0.713936 2.7358
            }
          }
        }
        JOINT LeftShoulder
        {
          OFFSET 17.7449 4.33886 11.7777
          CHANNELS 3 Zrotation Xrotation Yrotation
          JOINT LeftArm
          {
            OFFSET 0.911315 1.27913 9.80584
            CHANNELS 3 Zrotation Xrotation Yrotation
            JOINT LeftForeArm
            {
              OFFSET 28.6126 1.18197 -3.53199
              CHANNELS 3 Zrotation Xrotation Yrotation
              JOINT LeftHand
              {
                OFFSET 27.5088 0.0218783 0.327423
                CHANNELS 3 Zrotation Xrotation Yrotation
                End Site
                {
                  OFFSET 18.6038 -0.000155887 0.382096
                }
              }
            }
          }
        }
        JOINT RightShoulder
        {
          OFFSET 17.1009 2.89543 -12.2328
          CHANNELS 3 Zrotation Xrotation Yrotation
          JOINT RightArm
          {
            OFFSET 1.4228 0.178766 -10.211
            CHANNELS 3 Zrotation Xrotation Yrotation
            JOINT RightForeArm
            {
              OFFSET 28.733 1.87905 2.64907
              CHANNELS 3 Zrotation Xrotation Yrotation
              JOINT RightHand
              {
                OFFSET 27.4588 0.290562 -0.101845
                CHANNELS 3 Zrotation Xrotation Yrotation
                End Site
                {
                  OFFSET 17.8396 -0.255518 -0.000602873
                }
              }
            }
          }
        }
      }
    }
  }
  JOINT LeftUpLeg
  {
    OFFSET -5.61296 -2.22332 -10.2353
    CHANNELS 3 Zrotation Xrotation Yrotation
    JOINT LeftLeg
    {
      OFFSET 2.56703 -44.7417 -7.93097
      CHANNELS 3 Zrotation Xrotation Yrotation
      JOINT LeftFoot
      {
        OFFSET 3.16933 -46.5642 -3.96578
        CHANNELS 3 Zrotation Xrotation Yrotation
        JOINT LeftToeBase
        {
          OFFSET 0.346054 -6.02161 12.8035
          CHANNELS 3 Zrotation Xrotation Yrotation
          End Site
          {
            OFFSET 0.134235 -1.35082 5.13018
          }
        }
      }
    }
  }
  JOINT RightUpLeg
  {
    OFFSET -5.7928 -1.72406 10.6446
    CHANNELS 3 Zrotation Xrotation Yrotation
    JOINT RightLeg
    {
      OFFSET -2.57161 -44.7178 -7.85259
      CHANNELS 3 Zrotation Xrotation Yrotation
      JOINT RightFoot
      {
        OFFSET -3.10148 -46.5936 -4.03391
        CHANNELS 3 Zrotation Xrotation Yrotation
        JOINT RightToeBase
        {
          OFFSET -0.0828122 -6.13587 12.8035
          CHANNELS 3 Zrotation Xrotation Yrotation
          End Site
          {
            OFFSET -0.131328 -1.35082 5.13018
          }
        }
      }
    }
  }
}
MOTION
Frames:	15
Frame Time:	0.0333333
185.428 17.3396 30.3499 15.5034 -0.59932 -179.09 -70.1915 0 88.8779 77.7345 73.6463 14.2658 -1.29175 23.1562 4.05246 -179.338 23.6829 -161.026 -178.012 67.2315 -144.225 0.818877 -4.34815 -5.875 -147.72 5.02197 -139.363 14.1847 -0.597715 -94.1619 20.0003 1.17298 8.20483 -1.6052 -11.6994 -7.93103 -147.917 -3.05815 125.681 13.9833 2.29935 107.094 25.2485 -3.09697 -14.4845 -52.8827 15.9005 100.469 -1.02053 29.7775 -6.91497 -0.934637 -12.3134 -0.998587 -21.6642 -49.0185 0.0103796 -53.9812 -3.33568 101.36 -0.318678 32.1823 -2.52825 -4.72969 -9.38724 1.02803 -5.98544 -49.0501 11.6021 
185.416 17.3491 30.365 15.354 -0.701697 -179.285 -70.1915 0 88.8779 78.186 73.7136 13.3987 -1.43043 23.1173 4.31456 -179.24 23.7516 -161.256 -177.224 67.3113 -144.976 0.816734 -4.36802 -5.87638 -147.722 5.04148 -139.391 14.3435 -0.598844 -94.1027 19.8526 1.15386 8.14606 -1.6115 -11.6885 -8.01324 -147.908 -2.89132 125.605 13.9302 2.28447 107.105 25.4482 -3.11176 -14.4347 -53.1175 15.6027 100.442 -1.00433 29.6282 -6.86006 -0.959546 -12.2961 -0.996833 -23.2143 -47.5148 -5.39025 -54.101 -3.58847 101.37 -0.290634 32.2915 -2.41033 -4.76117 -9.42808 1.03053 -6.11971 -48.8076 11.1336 
185.42 17.5028 30.5603 15.9712 -1.24038 -179.231 -70.1915 0 88.8779 77.5686 73.307 14.4227 -1.60745 22.9152 3.77711 -179.265 23.7443 -161.609 -176.132 67.3429 -146.157 0.82122 -4.34748 -5.84513 -147.825 5.04095 -139.341 14.8268 -0.605525 -93.9459 19.5363 1.05056 7.66203 -1.58786 -11.6611 -7.82023 -147.913 -2.72616 125.986 14.0493 2.31031 107.034 25.0242 -3.08456 -14.5604 -52.0059 14.9491 99.3929 -0.905323 29.9321 -6.32531 -0.946705 -12.3315 -0.999936 -25.7236 -46.7319 -12.1556 -53.4016 -4.19547 100.633 -0.126606 32.3286 -1.93765 -4.77057 -9.32212 1.02768 -6.15284 -48.28 10.8579 
185.415 17.5223 30.6185 15.842 -1.55575 -179.211 -70.1915 0 88.8779 78.5125 73.2473 13.4231 -1.79683 22.7961 3.78577 -179.976 23.4575 -160.548 -179.799 67.0694 -143.38 0.821528 -4.65536 -5.64842 -147.908 5.01432 -138.885 15.1102 -0.62329 -93.9201 19.3832 0.980168 7.3049 -1.60486 -11.6721 -7.97417 -147.834 -2.83913 125.757 14.444 2.43797 107.039 24.8453 -3.03951 -14.4606 -51.9955 14.6414 98.9483 -0.842768 29.9912 -6.19425 -0.976852 -12.385 -1.00401 -28.6398 -45.8099 -19.9576 -53.5905 -4.47113 100.176 -0.120304 32.3268 -1.51435 -4.89102 -9.1221 1.02671 -6.50477 -48.1966 9.78085 
185.394 17.5261 30.6288 15.8663 -1.6925 -179.343 -70.1915 0 88.8779 78.3588 73.2021 13.3142 -1.87484 22.7295 3.88527 177.632 22.36 -157.882 171.195 65.8384 -135.954 0.81658 -4.71027 -5.50377 -148 5.06178 -138.763 15.2051 -0.605712 -93.8094 19.0142 0.876712 6.80759 -1.59351 -11.6893 -7.82974 -147.764 -2.44404 126.038 14.487 2.45703 107.064 24.998 -3.102 -14.6556 -52.0597 14.4262 99.001 -0.827239 29.7896 -6.27443 -0.970645 -12.2767 -0.995072 -28.5507 -45.9617 -19.5232 -53.5876 -4.68484 100.107 -0.138987 32.3374 -1.46536 -4.83907 -9.23861 1.02798 -6.40724 -47.782 9.91504 
185.4 17.5076 30.6568 15.7407 -1.7942 -179.404 -70.1915 0 88.8779 78.875 73.2131 12.5995 -2.00707 22.658 4.06272 178.431 22.7027 -158.131 172.487 66.092 -136.026 0.815168 -4.77547 -5.42489 -148.033 5.05911 -138.58 15.4933 -0.613592 -93.7434 19.0171 0.858271 6.69882 -1.60568 -11.6648 -7.99486 -147.733 -2.84963 125.805 14.9776 2.60013 106.999 24.7265 -3.01883 -14.436 -52.1691 14.2207 98.7738 -0.80129 29.8129 -6.10459 -1.0007 -12.3353 -0.999576 -28.8092 -46.046 -19.9415 -53.7178 -4.84608 99.9772 -0.121565 32.4025 -1.26082 -4.90974 -9.19067 1.02951 -6.62615 -47.7382 9.23641 
185.41 17.5299 30.6466 15.7105 -1.90482 -179.335 -70.1915 0 88.8779 79.309 73.1685 12.1539 -2.09303 22.5729 4.09232 177.973 22.4608 -157.836 171.544 65.8903 -135.705 0.813674 -4.81213 -5.36439 -148.089 4.99156 -138.487 15.6984 -0.613295 -93.6735 18.9846 0.825619 6.51581 -1.60521 -11.6364 -8.03888 -147.664 -2.56333 125.859 15.0717 2.63482 107.026 24.9811 -3.09304 -14.6248 -52.0984 14.2038 98.5961 -0.779638 29.8899 -6.09251 -1.01199 -12.3404 -0.999864 -28.7265 -46.0366 -19.78 -53.7524 -4.83545 99.9169 -0.0787426 32.4377 -1.33923 -4.91018 -9.20581 1.02997 -6.55887 -47.5697 9.37237 
185.402 17.528 30.6655 15.7039 -2.0023 -179.472 -70.1915 0 88.8779 79.3988 73.1412 11.7254 -2.29128 22.4657 4.33823 177.976 22.4504 -157.871 171.715 65.905 -135.934 0.809463 -4.72102 -5.34312 -148.075 5.03944 -138.439 15.8304 -0.624703 -93.6775 18.9582 0.809591 6.42832 -1.58489 -11.5449 -7.98933 -147.606 -2.72729 125.885 15.2769 2.6957 107.005 24.9021 -3.07111 -14.5717 -52.172 14.0268 98.6696 -0.792197 29.7689 -6.14237 -0.973257 -12.264 -0.993985 -28.6518 -45.952 -19.7808 -53.7251 -5.01332 99.9792 -0.0468611 32.5381 -1.40014 -4.88709 -9.27582 1.03106 -6.59629 -47.5885 9.26622 
185.399 17.5267 30.6865 15.5946 -2.09484 -179.397 -70.1915 0 88.8779 79.9781 73.1444 11.1371 -2.35376 22.4095 4.45093 178.406 22.6067 -158.038 172.403 66.0067 -135.993 0.813901 -4.76658 -5.40414 -148.106 5.09336 -138.43 16.032 -0.633681 -93.6491 18.793 0.795345 6.38527 -1.61496 -11.623 -8.16133 -147.586 -2.72068 125.8 15.2616 2.69548 107.029 24.9178 -3.10493 -14.7172 -52.2237 13.9432 98.3626 -0.751228 29.8037 -5.97027 -1.00128 -12.2861 -0.995464 -28.6144 -45.9177 -19.7304 -53.9186 -4.97827 99.8233 -0.160142 32.4493 -1.32925 -4.88743 -9.25175 1.03037 -6.60435 -47.4922 9.20247 
185.374 17.5538 30.6863 15.5943 -2.25319 -179.453 -70.1915 0 88.8779 80.2172 73.0875 10.7222 -2.4972 22.3257 4.49125 177.956 22.3682 -157.736 171.241 65.7759 -135.545 0.806583 -4.74642 -5.26154 -148.075 5.07894 -138.367 16.1169 -0.629064 -93.6034 18.8779 0.798762 6.41458 -1.58895 -11.5894 -7.95396 -147.594 -2.73256 125.921 15.3351 2.71306 107 24.716 -3.09614 -14.7992 -52.2831 13.8367 98.485 -0.732762 29.5989 -6.18721 -0.955368 -12.124 -0.982595 -28.5912 -45.8554 -19.7804 -53.8923 -5.22562 99.5057 -0.125706 32.4723 -1.10333 -4.90155 -9.29277 1.03215 -6.53561 -47.4149 9.38091 
185.391 17.5478 30.7221 15.4106 -2.2841 -179.533 -70.1915 0 88.8779 81.1722 73.1474 9.58423 -2.71807 22.304 4.6568 178.501 22.6399 -158.106 172.465 66.0174 -136.088 0.811676 -4.81863 -5.31567 -148.054 5.02535 -138.386 16.1881 -0.6299 -93.5844 18.904 0.805532 6.4179 -1.5902 -11.585 -7.97427 -147.524 -2.65578 125.964 15.1889 2.67018 107.017 24.7104 -3.13836 -14.9975 -52.4511 13.6223 98.1969 -0.716522 29.6575 -5.86182 -0.975884 -12.1887 -0.987686 -28.6532 -45.9132 -19.8205 -54.0469 -5.31923 99.5346 -0.13949 32.564 -1.10403 -4.85525 -9.36194 1.03231 -6.54033 -47.4416 9.37728 
185.392 17.5564 30.7209 15.3351 -2.37462 -179.498 -70.1915 0 88.8779 81.472 73.1296 9.18852 -2.7503 22.2188 4.8064 177.974 22.4194 -157.708 171.551 65.8825 -135.831 0.821391 -4.83244 -5.51783 -148.08 4.84357 -138.469 16.1746 -0.634602 -93.6076 18.8795 0.806987 6.50098 -1.60087 -11.5993 -8.05874 -147.534 -2.66357 125.929 15.0928 2.64536 107.047 24.6958 -3.14335 -15.0296 -52.4952 13.5795 98.0801 -0.690609 29.6528 -5.86313 -0.981498 -12.1624 -0.985422 -28.5993 -45.8617 -19.7878 -54.1507 -5.3254 99.4659 -0.14899 32.5578 -1.15654 -4.8395 -9.40593 1.03298 -6.47184 -47.3045 9.5463 
185.391 17.5725 30.7458 15.2748 -2.49692 -179.564 -70.1915 0 88.8779 81.8035 73.1049 8.64608 -2.88818 22.1296 4.97261 178.253 22.489 -157.598 171.387 65.8559 -135.298 0.8198 -4.79073 -5.51409 -148.055 4.87765 -138.457 16.1395 -0.633854 -93.6156 18.8095 0.807183 6.46597 -1.59087 -11.4925 -8.08972 -147.545 -2.61146 125.886 15.0606 2.62773 107.007 24.4742 -3.11689 -15.0451 -52.5557 13.3935 97.9629 -0.673281 29.5957 -5.8018 -0.970145 -12.1174 -0.981841 -28.5959 -45.8596 -19.7738 -54.2293 -5.4059 99.5293 -0.183749 32.579 -1.28223 -4.81766 -9.46614 1.03392 -6.48757 -47.3531 9.50318 
185.39 17.5725 30.7542 15.1717 -2.5225 -179.532 -70.1915 0 88.8779 82.6648 73.1385 7.78802 -3.11065 22.1279 5.0102 178.898 22.7823 -158.147 172.815 66.0933 -135.998 0.82401 -4.95625 -5.48207 -148.034 4.79217 -138.383 16.2086 -0.626768 -93.5654 18.8665 0.809343 6.44974 -1.58109 -11.5063 -8.02407 -147.512 -2.59407 125.904 14.9281 2.58885 107.023 24.3159 -3.11441 -15.1333 -52.6223 13.3807 97.8383 -0.669639 29.6491 -5.72203 -0.968218 -12.1565 -0.985118 -28.6493 -45.8948 -19.8416 -54.3377 -5.3909 99.4795 -0.197028 32.5908 -1.25346 -4.79526 -9.41602 1.03152 -6.49909 -47.374 9.47626 
185.388 17.5849 30.75 15.1686 -2.73791 -179.588 -70.1915 0 88.8779 82.6889 73.0639 7.50932 -3.22013 21.9995 5.15591 178.527 22.5446 -157.834 171.788 65.857 -135.492 0.825682 -5.01093 -5.4774 -148.03 4.65618 -138.363 16.0885 -0.631706 -93.6231 18.8474 0.814251 6.48354 -1.57325 -11.471 -7.99792 -147.489 -2.4966 125.905 14.8659 2.5782 107.073 24.348 -3.12585 -15.1666 -52.6601 13.237 97.8952 -0.648049 29.4741 -5.92076 -0.934563 -12.0142 -0.973809 -28.6021 -45.8707 -19.7791 -54.3204 -5.67378 99.1311 -0.141122 32.6452 -1.04059 -4.75838 -9.45126 1.03113 -6.47522 -47.3783 9.55107 
